<svg xmlns="http://www.w3.org/2000/svg" width="900" height="230" viewBox="0 0 900 230" role="img">
<rect width="900" height="230" rx="10" fill="#0d1117" stroke="#21262d" stroke-width="1"/><g font-family="ui-monospace, SFMono-Regular, Menlo, Monaco, Consolas, Liberation Mono, DejaVu Sans Mono, monospace">
<circle cx="18" cy="18" r="4" fill="#ff5f56"/>
<circle cx="32" cy="18" r="4" fill="#ffbd2e"/>
<circle cx="46" cy="18" r="4" fill="#27c93f"/>
<text x="62" y="22" fill="#8b949e" font-size="11">contrib-heatmap.svg</text>
<text x="22" y="30" fill="#8b949e" font-size="11">public contribution calendar · 53 weeks</text>
<text x="24" y="52" fill="#8b949e" font-size="10">$ curl github.com/users/MugdhoAI/contributions</text><g><rect x="230" y="158" width="11" height="11" rx="2" fill="#0e4429" opacity="0"><animate attributeName="opacity" from="0" to="1" begin="0.360s" dur="0.18s" fill="freeze"/></rect><rect x="300" y="144" width="11" height="11" rx="2" fill="#006d32" opacity="0"><animate attributeName="opacity" from="0" to="1" begin="0.432s" dur="0.18s" fill="freeze"/></rect><rect x="300" y="158" width="11" height="11" rx="2" fill="#26a641" opacity="0"><animate attributeName="opacity" from="0" to="1" begin="0.450s" dur="0.18s" fill="freeze"/></rect><rect x="622" y="144" width="11" height="11" rx="2" fill="#26a641" opacity="0"><animate attributeName="opacity" from="0" to="1" begin="0.846s" dur="0.18s" fill="freeze"/></rect><rect x="622" y="158" width="11" height="11" rx="2" fill="#26a641" opacity="0"><animate attributeName="opacity" from="0" to="1" begin="0.864s" dur="0.18s" fill="freeze"/></rect><rect x="636" y="74" width="11" height="11" rx="2" fill="#0e4429" opacity="0"><animate attributeName="opacity" from="0" to="1" begin="0.774s" dur="0.18s" fill="freeze"/></rect><rect x="636" y="102" width="11" height="11" rx="2" fill="#0e4429" opacity="0"><animate attributeName="opacity" from="0" to="1" begin="0.810s" dur="0.18s" fill="freeze"/></rect><rect x="762" y="74" width="11" height="11" rx="2" fill="#0e4429" opacity="0"><animate attributeName="opacity" from="0" to="1" begin="0.936s" dur="0.18s" fill="freeze"/></rect><rect x="762" y="88" width="11" height="11" rx="2" fill="#26a641" opacity="0"><animate attributeName="opacity" from="0" to="1" begin="0.954s" dur="0.18s" fill="freeze"/></rect><rect x="762" y="116" width="11" height="11" rx="2" fill="#39d353" opacity="0"><animate attributeName="opacity" from="0" to="1" begin="0.990s" dur="0.18s" fill="freeze"/></rect><rect x="762" y="130" width="11" height="11" rx="2" fill="#39d353" opacity="0"><animate attributeName="opacity" from="0" to="1" begin="1.008s" dur="0.18s" fill="freeze"/></rect><rect x="762" y="144" width="11" height="11" rx="2" fill="#39d353" opacity="0"><animate attributeName="opacity" from="0" to="1" begin="1.026s" dur="0.18s" fill="freeze"/></rect></g><text x="62" y="68" fill="#8b949e" font-size="8">Oct</text><text x="118" y="68" fill="#8b949e" font-size="8">Nov</text><text x="188" y="68" fill="#8b949e" font-size="8">Dec</text><text x="244" y="68" fill="#8b949e" font-size="8">Jan</text><text x="314" y="68" fill="#8b949e" font-size="8">Feb</text><text x="370" y="68" fill="#8b949e" font-size="8">Mar</text><text x="426" y="68" fill="#8b949e" font-size="8">Apr</text><text x="482" y="68" fill="#8b949e" font-size="8">May</text><text x="552" y="68" fill="#8b949e" font-size="8">Jun</text><text x="608" y="68" fill="#8b949e" font-size="8">Jul</text><text x="664" y="68" fill="#8b949e" font-size="8">Aug</text><text x="734" y="68" fill="#8b949e" font-size="8">Sep</text><text x="720" y="164" fill="#8b949e" font-size="8">Less</text><rect x="748" y="156" width="10" height="10" rx="2" fill="#161b22"/><rect x="762" y="156" width="10" height="10" rx="2" fill="#0e4429"/><rect x="776" y="156" width="10" height="10" rx="2" fill="#006d32"/><rect x="790" y="156" width="10" height="10" rx="2" fill="#26a641"/><rect x="804" y="156" width="10" height="10" rx="2" fill="#39d353"/><text x="822" y="164" fill="#8b949e" font-size="8">More</text><text x="34" y="183" fill="#e6edf3" font-size="10">87 contributions</text><text x="190" y="183" fill="#8b949e" font-size="10">12 active days</text><text x="310" y="183" fill="#8b949e" font-size="10">peak day: 17</text><text x="34" y="204" fill="#8b949e" font-size="8">Levels 0–4 · source: GitHub public contributions HTML · generated 2026-09-18</text></g></svg>